<?xml version="1.0" standalone="no"?>
<!DOCTYPE svg PUBLIC "-//W3C//DTD SVG 20010904//EN"
 "http://www.w3.org/TR/2001/REC-SVG-20010904/DTD/svg10.dtd">
<svg version="1.0" xmlns="http://www.w3.org/2000/svg"
 width="400.000000pt" height="400.000000pt" viewBox="0 0 400.000000 400.000000"
 preserveAspectRatio="xMidYMid meet">
<metadata>
Created by potrace 1.14, written by Peter Selinger 2001-2017
</metadata>
<g transform="translate(0.000000,400.000000) scale(0.100000,-0.100000)"
fill="#000000" stroke="none">
<path d="M173 2443 c-18 -7 -19 -933 -1 -951 9 -9 81 -12 263 -12 270 0 295 4
281 48 -7 21 -11 22 -249 24 l-242 3 0 185 0 185 209 5 c181 4 210 7 219 22 8
12 7 21 -2 32 -12 14 -44 16 -222 16 l-209 0 2 188 3 187 239 5 c209 4 240 7
249 22 8 12 7 21 -2 32 -12 14 -47 16 -270 15 -141 0 -262 -3 -268 -6z"/>
<path d="M2837 2433 c-4 -3 -7 -66 -7 -139 l0 -133 -57 -3 c-57 -3 -58 -3 -58
-33 0 -30 1 -30 58 -33 l57 -3 0 -260 c0 -279 4 -303 52 -326 44 -22 65 -24
82 -7 23 22 16 36 -27 57 l-37 17 0 260 0 260 44 0 c38 0 76 18 76 35 0 17
-38 35 -76 35 l-44 0 0 121 c0 66 -5 129 -10 140 -10 19 -40 26 -53 12z"/>
<path d="M2402 2368 c-28 -28 -8 -88 29 -88 18 0 29 19 29 54 0 24 -17 46 -35
46 -6 0 -16 -5 -23 -12z"/>
<path d="M1845 2151 c-101 -26 -160 -89 -160 -170 0 -90 58 -136 217 -172 51
-12 106 -28 122 -36 82 -42 100 -113 42 -168 -71 -67 -183 -70 -295 -9 -35 19
-73 34 -85 32 -36 -5 -30 -35 14 -67 167 -121 392 -89 455 63 21 50 12 103
-25 148 -37 44 -95 72 -194 93 -135 27 -186 59 -186 116 0 65 105 129 190 115
19 -3 62 -19 94 -36 64 -33 91 -37 99 -16 22 58 -183 135 -288 107z"/>
<path d="M2400 2141 c-6 -12 -10 -134 -10 -325 0 -264 2 -307 16 -320 19 -19
26 -20 42 -4 17 17 17 639 0 656 -18 18 -36 15 -48 -7z"/>
<path d="M3470 2146 c-91 -25 -172 -96 -213 -185 -31 -68 -31 -218 1 -282 37
-74 87 -125 158 -160 126 -62 266 -37 368 65 48 48 57 75 31 96 -13 11 -23 6
-65 -37 -27 -28 -66 -59 -87 -69 -51 -25 -164 -25 -215 0 -80 39 -147 132
-148 203 l0 33 288 2 287 3 -2 47 c-3 87 -71 200 -149 249 -42 26 -126 49
-174 48 -19 0 -55 -6 -80 -13z m197 -80 c63 -32 124 -110 135 -171 3 -20 -3
-20 -251 -23 l-253 -2 7 27 c18 77 86 151 162 179 48 18 157 13 200 -10z"/>
<path d="M937 2143 c-17 -16 0 -48 97 -182 l105 -143 -81 -112 c-45 -61 -92
-125 -106 -143 -27 -37 -26 -67 4 -71 15 -2 42 27 119 133 54 74 101 135 104
134 4 0 24 -26 47 -57 141 -196 156 -213 177 -210 12 2 23 10 25 19 2 9 -41
76 -96 150 -54 74 -102 140 -106 147 -4 7 33 67 99 158 59 80 105 153 103 162
-2 9 -13 18 -25 20 -16 2 -30 -8 -53 -40 -94 -132 -166 -227 -171 -228 -3 0
-50 61 -105 135 -90 122 -118 148 -137 128z"/>
</g>
</svg>
